<?xml version="1.0" encoding="UTF-8" standalone="no"?>
<!-- Created with Inkscape (http://www.inkscape.org/) -->

<svg
   width="383.47021mm"
   height="138.48541mm"
   viewBox="0 0 383.47021 138.48541"
   version="1.1"
   id="svg4487"
   inkscape:export-filename="/home/jul/git/jwist/lamps/images/bannerBWY.png"
   inkscape:export-xdpi="96"
   inkscape:export-ydpi="96"
   inkscape:version="1.2 (dc2aeda, 2022-05-15)"
   sodipodi:docname="bannerYellow.svg"
   xmlns:inkscape="http://www.inkscape.org/namespaces/inkscape"
   xmlns:sodipodi="http://sodipodi.sourceforge.net/DTD/sodipodi-0.dtd"
   xmlns="http://www.w3.org/2000/svg"
   xmlns:svg="http://www.w3.org/2000/svg"
   xmlns:rdf="http://www.w3.org/1999/02/22-rdf-syntax-ns#"
   xmlns:cc="http://creativecommons.org/ns#"
   xmlns:dc="http://purl.org/dc/elements/1.1/">
  <defs
     id="defs4481" />
  <sodipodi:namedview
     id="base"
     pagecolor="#ffffff"
     bordercolor="#666666"
     borderopacity="1.0"
     inkscape:pageopacity="0.0"
     inkscape:pageshadow="2"
     inkscape:zoom="1.5586968"
     inkscape:cx="682.30075"
     inkscape:cy="185.09052"
     inkscape:document-units="mm"
     inkscape:current-layer="layer1"
     showgrid="false"
     inkscape:window-width="1728"
     inkscape:window-height="1051"
     inkscape:window-x="0"
     inkscape:window-y="38"
     inkscape:window-maximized="0"
     inkscape:showpageshadow="2"
     inkscape:pagecheckerboard="0"
     inkscape:deskcolor="#d1d1d1" />
  <metadata
     id="metadata4484">
    <rdf:RDF>
      <cc:Work
         rdf:about="">
        <dc:format>image/svg+xml</dc:format>
        <dc:type
           rdf:resource="http://purl.org/dc/dcmitype/StillImage" />
        <dc:title />
      </cc:Work>
    </rdf:RDF>
  </metadata>
  <g
     inkscape:label="Layer 1"
     inkscape:groupmode="layer"
     id="layer1"
     transform="translate(429.02031,5.7878214)">
    <path
       inkscape:export-ydpi="96"
       inkscape:export-xdpi="96"
       inkscape:export-filename="./bannerYellow.png"
       inkscape:connector-curvature="0"
       id="path4074"
       style="fill:#ffc341;fill-opacity:0.48972605;fill-rule:nonzero;stroke:none;stroke-width:0.43162972"
       d="M -429.02031,132.69759 H -45.550091 V -5.7878214 H -429.02031 Z"
       sodipodi:insensitive="true" />
    <path
       inkscape:export-filename="./banner.png"
       inkscape:export-ydpi="96"
       inkscape:export-xdpi="96"
       d="m -284.34524,79.010405 h -20.41458 c -0.77723,0 -0.88443,-0.635893 -0.88443,-1.41365 v -0.330806 c 0,-0.777716 0.1072,-1.413596 0.88443,-1.413596 h 20.41458 c 0.77723,0 0.88444,0.63588 0.88444,1.413596 v 0.330806 c 0,0.777757 -0.10721,1.41365 -0.88444,1.41365 z"
       style="fill:none;stroke:#232323;stroke-width:0.51404;stroke-linecap:butt;stroke-linejoin:miter;stroke-miterlimit:10;stroke-dasharray:none;stroke-opacity:1"
       id="path4076"
       inkscape:connector-curvature="0"
       sodipodi:nodetypes="sssssssss" />
    <path
       inkscape:export-filename="./banner.png"
       inkscape:export-ydpi="96"
       inkscape:export-xdpi="96"
       d="M -304.32955,75.852202 V 55.811206 c 0,0 0.83787,-4.765024 9.77702,-4.765024"
       style="fill:none;stroke:#232323;stroke-width:0.51404;stroke-linecap:butt;stroke-linejoin:miter;stroke-miterlimit:10;stroke-dasharray:none;stroke-opacity:1"
       id="path4078"
       inkscape:connector-curvature="0"
       sodipodi:nodetypes="ccc" />
    <path
       inkscape:export-filename="./banner.png"
       inkscape:export-ydpi="96"
       inkscape:export-xdpi="96"
       d="M -284.77528,75.852202 V 55.811206 c 0,0 -0.83788,-4.765024 -9.77705,-4.765024"
       style="fill:none;stroke:#232323;stroke-width:0.51404;stroke-linecap:butt;stroke-linejoin:miter;stroke-miterlimit:10;stroke-dasharray:none;stroke-opacity:1"
       id="path4080"
       inkscape:connector-curvature="0"
       sodipodi:nodetypes="ccc" />
    <path
       inkscape:export-filename="./banner.png"
       inkscape:export-ydpi="96"
       inkscape:export-xdpi="96"
       d="m -290.36222,60.138937 c 0,2.314174 -1.87576,4.190412 -4.18994,4.190412 -2.31421,0 -4.19045,-1.876238 -4.19045,-4.190412 0,-2.314231 1.87624,-4.189926 4.19045,-4.189926 2.31418,0 4.18994,1.875695 4.18994,4.189926 z"
       style="fill:none;stroke:#232323;stroke-width:0.51404;stroke-linecap:butt;stroke-linejoin:miter;stroke-miterlimit:10;stroke-dasharray:none;stroke-opacity:1"
       id="path4082"
       inkscape:connector-curvature="0" />
    <path
       inkscape:export-filename="./banner.png"
       inkscape:export-ydpi="96"
       inkscape:export-xdpi="96"
       d="m -289.67245,55.270898 -9.76006,9.735926"
       style="fill:none;stroke:#232323;stroke-width:0.51404;stroke-linecap:butt;stroke-linejoin:miter;stroke-miterlimit:10;stroke-dasharray:none;stroke-opacity:1"
       id="path4084"
       inkscape:connector-curvature="0" />
    <path
       inkscape:export-filename="./banner.png"
       inkscape:export-ydpi="96"
       inkscape:export-xdpi="96"
       d="m -300.64215,72.773589 2.09524,-4.162153 c 0,0 0.5027,-0.9777 1.17303,-0.614812 0.6703,0.363429 0.69857,1.061484 0.69857,1.061484 l 0.39069,3.715481 c 0,0 0.11212,0.810143 0.64254,0.949965 0.53101,0.139295 0.89391,-0.474978 1.11751,-1.089746 l 0.81013,-2.234571 c 0,0 0.25137,-0.530986 0.7541,-0.447201 0.50324,0.08375 0.72634,0.586536 0.72634,0.586536 0,0 0.58653,1.313355 1.62024,1.313355 h 2.82157"
       style="fill:none;stroke:#232323;stroke-width:0.51404;stroke-linecap:butt;stroke-linejoin:miter;stroke-miterlimit:10;stroke-dasharray:none;stroke-opacity:1"
       id="path4086"
       inkscape:connector-curvature="0" />
    <path
       inkscape:export-filename="./banner.png"
       inkscape:export-ydpi="96"
       inkscape:export-xdpi="96"
       inkscape:connector-curvature="0"
       id="path4088"
       style="fill:none;stroke:#232323;stroke-width:0.51404;stroke-linecap:butt;stroke-linejoin:miter;stroke-miterlimit:10;stroke-dasharray:none;stroke-opacity:1"
       d="m -299.10568,91.329678 h -3.68721 V 79.010737 h 3.68721 z" />
    <path
       inkscape:export-filename="./banner.png"
       inkscape:export-ydpi="96"
       inkscape:export-xdpi="96"
       inkscape:connector-curvature="0"
       id="path4090"
       style="fill:none;stroke:#232323;stroke-width:0.51404;stroke-linecap:butt;stroke-linejoin:miter;stroke-miterlimit:10;stroke-dasharray:none;stroke-opacity:1"
       d="m -286.31175,91.329678 h -3.68721 V 79.010737 h 3.68721 z" />
    <path
       inkscape:export-filename="./banner.png"
       inkscape:export-ydpi="96"
       inkscape:export-xdpi="96"
       inkscape:connector-curvature="0"
       id="path4096"
       style="fill:none;stroke:#232323;stroke-width:0.51404;stroke-linecap:butt;stroke-linejoin:miter;stroke-miterlimit:10;stroke-dasharray:none;stroke-opacity:1"
       d="m -291.22135,46.416249 h -6.66245 v -2.639594 h 6.66245 z" />
    <path
       inkscape:export-filename="./banner.png"
       inkscape:export-ydpi="96"
       inkscape:export-xdpi="96"
       d="m -296.39608,51.202613 v -4.786754 h 3.6872 v 4.822225"
       style="fill:none;stroke:#232323;stroke-width:0.51404;stroke-linecap:butt;stroke-linejoin:miter;stroke-miterlimit:10;stroke-dasharray:none;stroke-opacity:1"
       id="path4098"
       inkscape:connector-curvature="0" />
    <path
       inkscape:export-filename="./banner.png"
       inkscape:export-ydpi="96"
       inkscape:export-xdpi="96"
       d="m -291.43996,55.173544 1.76727,0.0972 0.18085,1.683504"
       style="fill:none;stroke:#232323;stroke-width:0.51404;stroke-linecap:butt;stroke-linejoin:miter;stroke-miterlimit:10;stroke-dasharray:none;stroke-opacity:1"
       id="path4100"
       inkscape:connector-curvature="0" />
    <g
       inkscape:export-ydpi="96"
       inkscape:export-xdpi="96"
       inkscape:export-filename="./banner.png"
       style="display:none;stroke-width:1.19917834;stroke-miterlimit:10;stroke-dasharray:none"
       transform="matrix(0.166627,0,0,-0.17031145,-396.41057,173.93257)"
       id="g4328">
      <path
         transform="scale(1,-1)"
         style="fill:none;stroke:#000000;stroke-width:1.19917834;stroke-linejoin:round;stroke-miterlimit:10;stroke-dasharray:none;stroke-opacity:1"
         d="m 1083.287,-759.72618 h 159.393 v 35.06797 h -159.393 z"
         id="path4290"
         inkscape:connector-curvature="0"
         sodipodi:nodetypes="ccccc" />
      <rect
         style="fill:none;stroke:#000000;stroke-width:1.19917834;stroke-linejoin:round;stroke-miterlimit:10;stroke-dasharray:none;stroke-opacity:1"
         transform="matrix(0,-1,-1,0,0,0)"
         y="-1236.1145"
         x="-755.51788"
         height="36.725342"
         width="30.723055"
         id="rect4292" />
      <rect
         id="rect4294"
         width="30.723055"
         height="37.213879"
         x="-755.51788"
         y="-1193.103"
         transform="matrix(0,-1,-1,0,0,0)"
         style="fill:none;stroke:#000000;stroke-width:1.19917834;stroke-linejoin:round;stroke-miterlimit:10;stroke-dasharray:none;stroke-opacity:1" />
      <rect
         style="fill:none;stroke:#000000;stroke-width:1.19917834;stroke-linejoin:round;stroke-miterlimit:10;stroke-dasharray:none;stroke-opacity:1"
         transform="matrix(0,-1,-1,0,0,0)"
         y="-1148.9171"
         x="-755.51788"
         height="36.527939"
         width="30.723055"
         id="rect4296" />
      <rect
         id="rect4298"
         width="10.919656"
         height="12.2377"
         x="1092.813"
         y="-747.06226"
         transform="scale(1,-1)"
         style="fill:none;stroke:#000000;stroke-width:1.19917834;stroke-linejoin:round;stroke-miterlimit:10;stroke-dasharray:none;stroke-opacity:1" />
      <path
         style="fill:none;stroke:#000000;stroke-width:1.14268076;stroke-linecap:butt;stroke-linejoin:round;stroke-miterlimit:10;stroke-dasharray:none;stroke-opacity:1"
         d="m 1112.4096,759.71326 v 10.97702 h 9.2678 l 24.7958,13.47802 -0.1576,9.61295 8.2479,0.006 20.9639,12.46759 21.2029,-12.60968 h 11.0489 V 759.7135"
         id="path4300"
         inkscape:connector-curvature="0"
         sodipodi:nodetypes="cccccccccc" />
      <path
         style="fill:none;stroke:#000000;stroke-width:1.19917834;stroke-linecap:butt;stroke-linejoin:round;stroke-miterlimit:10;stroke-dasharray:none;stroke-opacity:1"
         d="m 1114.7918,771.23799 v 18.6604 h 31.3975"
         id="path4302"
         inkscape:connector-curvature="0" />
      <path
         transform="matrix(0,-1,-1,0,0,0)"
         style="fill:none;stroke:#000000;stroke-width:1.19917834;stroke-linejoin:round;stroke-miterlimit:10;stroke-dasharray:none;stroke-opacity:1"
         d="m -793.78125,-1146.3156 h 3.73634 v 30.5174 h -3.73634 z"
         id="path4304"
         inkscape:connector-curvature="0"
         sodipodi:nodetypes="ccccc" />
      <path
         transform="matrix(0,-1,-1,0,0,0)"
         style="fill:none;stroke:#000000;stroke-width:1.19917834;stroke-linejoin:round;stroke-miterlimit:10;stroke-dasharray:none;stroke-opacity:1"
         d="m -807.51589,-1146.3156 h 13.73463 v 29.0173 h -13.73463 z"
         id="path4306"
         inkscape:connector-curvature="0"
         sodipodi:nodetypes="ccccc" />
      <path
         style="fill:none;stroke:#000000;stroke-width:1.19917834;stroke-linejoin:round;stroke-miterlimit:10;stroke-dasharray:none;stroke-opacity:1"
         d="m 1123.3197,835.8775 h 16.9745 v -28.36161 h -16.9745 z"
         id="path4308"
         inkscape:connector-curvature="0"
         sodipodi:nodetypes="ccccc" />
      <rect
         style="fill:none;stroke:#000000;stroke-width:1.19917834;stroke-linejoin:round;stroke-miterlimit:10;stroke-dasharray:none;stroke-opacity:1"
         transform="scale(1,-1)"
         y="-843.60193"
         x="1124.1849"
         height="7.7349153"
         width="15.243925"
         id="rect4310" />
      <path
         style="fill:none;stroke:#000000;stroke-width:1.19917834;stroke-linecap:butt;stroke-linejoin:round;stroke-miterlimit:10;stroke-dasharray:none;stroke-opacity:1"
         d="m 1124.1846,843.60189 7.7407,27.14298 7.5032,-27.14298"
         id="path4312"
         inkscape:connector-curvature="0" />
      <path
         style="fill:none;stroke:#000000;stroke-width:1.19917834;stroke-linecap:butt;stroke-linejoin:round;stroke-miterlimit:10;stroke-dasharray:none;stroke-opacity:1"
         d="m 1131.807,870.74484 v 15.9215"
         id="path4314"
         inkscape:connector-curvature="0" />
      <path
         style="fill:none;stroke:#000000;stroke-width:1.19917834;stroke-linecap:butt;stroke-linejoin:round;stroke-miterlimit:10;stroke-dasharray:none;stroke-opacity:1"
         d="m 1127.4285,879.6609 h 8.7569"
         id="path4316"
         inkscape:connector-curvature="0" />
      <path
         sodipodi:nodetypes="ccccc"
         inkscape:connector-curvature="0"
         id="path4318"
         d="m 1165.3641,781.2726 v -13.73463 h -6.9021 v 13.73463 z"
         style="fill:none;stroke:#000000;stroke-width:1.19321227;stroke-linejoin:round;stroke-miterlimit:10;stroke-dasharray:none;stroke-opacity:1" />
      <path
         style="fill:none;stroke:#000000;stroke-width:1.19321227;stroke-linejoin:round;stroke-miterlimit:10;stroke-dasharray:none;stroke-opacity:1"
         d="M 1172.6021,781.2726 V 767.53797 H 1165.7 v 13.73463 z"
         id="path4320"
         inkscape:connector-curvature="0"
         sodipodi:nodetypes="ccccc" />
      <path
         sodipodi:nodetypes="ccccc"
         inkscape:connector-curvature="0"
         id="path4322"
         d="m 1179.8401,781.2726 v -13.73463 h -6.9021 v 13.73463 z"
         style="fill:none;stroke:#000000;stroke-width:1.19321227;stroke-linejoin:round;stroke-miterlimit:10;stroke-dasharray:none;stroke-opacity:1" />
      <path
         style="fill:none;stroke:#000000;stroke-width:1.19321227;stroke-linejoin:round;stroke-miterlimit:10;stroke-dasharray:none;stroke-opacity:1"
         d="m 1187.0781,781.2726 v -13.73463 h -6.9021 v 13.73463 z"
         id="path4324"
         inkscape:connector-curvature="0"
         sodipodi:nodetypes="ccccc" />
      <path
         sodipodi:nodetypes="ccccc"
         inkscape:connector-curvature="0"
         id="path4326"
         d="m 1194.3161,781.2726 v -13.73463 h -6.9021 v 13.73463 z"
         style="fill:none;stroke:#000000;stroke-width:1.19321227;stroke-linejoin:round;stroke-miterlimit:10;stroke-dasharray:none;stroke-opacity:1" />
    </g>
    <circle
       inkscape:export-ydpi="96"
       inkscape:export-xdpi="96"
       inkscape:export-filename="./banner.png"
       r="0.62543863"
       cy="37.892796"
       cx="-200.49748"
       id="circle4330"
       style="display:none;fill:none;stroke:#000000;stroke-width:0.20201255;stroke-linejoin:round;stroke-miterlimit:10;stroke-dasharray:none;stroke-opacity:1" />
    <path
       inkscape:export-ydpi="96"
       inkscape:export-xdpi="96"
       inkscape:export-filename="./banner.png"
       inkscape:connector-curvature="0"
       id="path4332"
       d="m -197.43437,40.186083 h -5.92082"
       style="display:none;fill:none;stroke:#000000;stroke-width:0.15075564px;stroke-linecap:butt;stroke-linejoin:miter;stroke-opacity:1" />
    <rect
       inkscape:export-ydpi="96"
       inkscape:export-xdpi="96"
       inkscape:export-filename="./banner.png"
       y="50.499763"
       x="-218.90547"
       height="0.58966917"
       width="31.96007"
       id="rect4334"
       style="display:none;fill:none;stroke:#000000;stroke-width:0.20100752;stroke-linejoin:round;stroke-miterlimit:10;stroke-dasharray:none;stroke-opacity:1" />
    <rect
       inkscape:export-ydpi="96"
       inkscape:export-xdpi="96"
       inkscape:export-filename="./banner.png"
       style="display:none;fill:none;stroke:#000000;stroke-width:0.20525526;stroke-linejoin:round;stroke-miterlimit:10;stroke-dasharray:none;stroke-opacity:1"
       id="rect4336"
       width="33.444851"
       height="0.58755827"
       x="-219.59715"
       y="51.70686" />
    <rect
       inkscape:export-ydpi="96"
       inkscape:export-xdpi="96"
       inkscape:export-filename="./banner.png"
       y="51.102787"
       x="-219.15346"
       height="0.58966917"
       width="32.488354"
       id="rect4338"
       style="display:none;fill:none;stroke:#000000;stroke-width:0.20266202;stroke-linejoin:round;stroke-miterlimit:10;stroke-dasharray:none;stroke-opacity:1" />
    <g
       id="g5611"
       transform="translate(-10.70448,-13.860574)">
      <g
         transform="matrix(0.53450106,-0.38472347,0.3949721,0.52063197,-169.02293,-88.299271)"
         id="g1883">
        <rect
           style="fill:none;fill-opacity:0.490196;fill-rule:evenodd;stroke:#000000;stroke-width:0.264583;stroke-opacity:1"
           id="rect1857"
           width="1.6794245"
           height="4.7272692"
           x="-296.56348"
           y="55.381863" />
        <path
           style="fill:none;stroke:#000000;stroke-width:0.2;stroke-linecap:butt;stroke-linejoin:miter;stroke-miterlimit:4;stroke-dasharray:none;stroke-opacity:1"
           d="m -295.72377,53.82684 v 1.492821"
           id="path1859"
           inkscape:connector-curvature="0"
           sodipodi:nodetypes="cc" />
        <path
           style="fill:none;stroke:#000000;stroke-width:0.2;stroke-linecap:butt;stroke-linejoin:miter;stroke-miterlimit:4;stroke-dasharray:none;stroke-opacity:1"
           d="m -294.91516,53.82684 h -1.61722"
           id="path1859-6"
           inkscape:connector-curvature="0"
           sodipodi:nodetypes="cc" />
        <path
           sodipodi:nodetypes="cc"
           inkscape:connector-curvature="0"
           id="path1877"
           d="m -295.72377,60.176844 v 1.492821"
           style="fill:none;stroke:#000000;stroke-width:0.2;stroke-linecap:butt;stroke-linejoin:miter;stroke-miterlimit:4;stroke-dasharray:none;stroke-opacity:1" />
      </g>
    </g>
    <g
       id="g4911"
       transform="matrix(0.18354648,0,0,0.18354648,-324.89308,-15.342805)">
      <path
         sodipodi:nodetypes="sssssss"
         d="m 137.67915,113.02681 c 0,15.27212 -12.3805,27.65262 -27.65262,27.65262 -15.272116,0 -27.652616,-12.3805 -27.652614,-27.65262 2e-6,-11.68946 7.253177,-21.684836 17.504523,-25.731152 3.141901,-1.240141 6.565431,-1.921461 10.148091,-1.921461 4.14177,0 8.07086,0.910567 11.59801,2.542434 9.47867,4.385377 16.0546,13.979829 16.05461,25.110179 z"
         style="fill:#ffffff;fill-opacity:1;stroke:#000000;stroke-width:0.8;stroke-linejoin:round;stroke-miterlimit:10;stroke-dasharray:none;stroke-opacity:1"
         id="path6622-0" />
      <path
         sodipodi:nodetypes="czcszzc"
         id="path6647-43"
         d="m 106.68467,86.770143 c -1.66014,-0.849215 -1.17286,-6.096079 0.45253,-7.391619 1.62539,-1.295536 2.73907,-2.237484 2.73907,-2.67754 0,-1.07317 -2.69712,-1.943148 -6.02418,-1.943148 -3.32706,0 -6.024179,1.17372 -6.024179,1.943148 0,0.76943 1.285085,1.37284 3.302699,2.871528 2.01762,1.498687 2.53383,5.507225 0.58064,7.439117"
         style="fill:#ffffff;fill-opacity:1;stroke:#000000;stroke-width:0.8;stroke-linecap:butt;stroke-linejoin:miter;stroke-miterlimit:4;stroke-dasharray:none;stroke-opacity:1" />
      <path
         style="fill:#ffffff;fill-opacity:1;stroke:#000000;stroke-width:0.8;stroke-linecap:butt;stroke-linejoin:miter;stroke-miterlimit:4;stroke-dasharray:none;stroke-opacity:1"
         d="m 131.09544,95.382495 c -1.80244,-2.122586 2.56221,-8.560176 5.81129,-9.214431 3.24908,-0.654264 5.51314,-1.17228 5.82024,-1.737595 0.74894,-1.378651 -2.53505,-4.172317 -7.33501,-6.239824 -4.79996,-2.067508 -9.5102,-2.235732 -10.04717,-1.247284 -0.53696,0.988449 0.89593,2.562198 2.76085,5.741284 1.86493,3.179085 -0.1878,8.649443 -4.35389,9.917491"
         id="path6647-4-3"
         sodipodi:nodetypes="czcszzc" />
      <path
         style="fill:#ffffff;fill-opacity:1;stroke:#000000;stroke-width:0.8;stroke-linecap:butt;stroke-linejoin:miter;stroke-miterlimit:4;stroke-dasharray:none;stroke-opacity:1"
         d="m 93.058107,97.279196 c -2.628669,1.523035 -9.381986,-3.777355 -9.720431,-7.146738 -0.338445,-3.369393 -0.644655,-5.725939 -1.247145,-6.114535 -1.469305,-0.947667 -5.042103,1.976792 -7.980066,6.531948 -2.937965,4.555165 -3.712688,9.284306 -2.659244,9.963749 1.053443,0.67945 3.014381,-0.547159 6.84793,-1.986104 3.833549,-1.438954 9.777567,1.394027 10.697796,5.774154"
         id="path6647-3-4"
         sodipodi:nodetypes="czcszzc" />
      <path
         style="fill:#ffffff;fill-opacity:1;stroke:#000000;stroke-width:0.8;stroke-linecap:butt;stroke-linejoin:miter;stroke-miterlimit:4;stroke-dasharray:none;stroke-opacity:1"
         d="m 87.025154,120.76605 c 0.227341,2.50363 -6.103827,5.72587 -8.750712,4.80601 -2.646892,-0.91986 -4.522345,-1.51103 -5.023915,-1.19419 -1.223197,0.77266 -0.27292,4.47318 2.122495,8.26533 2.395416,3.79217 5.675076,6.02127 6.552071,5.4673 0.876986,-0.55397 0.639515,-2.45315 0.895063,-5.83184 0.255553,-3.3787 4.452788,-6.85311 8.061,-6.01779"
         id="path6647-1-0"
         sodipodi:nodetypes="czcszzc" />
      <path
         style="fill:#ffffff;fill-opacity:1;stroke:#000000;stroke-width:0.8;stroke-linecap:butt;stroke-linejoin:miter;stroke-miterlimit:4;stroke-dasharray:none;stroke-opacity:1"
         d="m 94.70605,129.88235 c 2.205845,3.11381 -3.294919,12.43171 -7.332811,13.34276 -4.037883,0.91104 -6.852469,1.63633 -7.241063,2.45555 -0.947658,1.99787 3.086099,6.1078 9.009643,9.17979 5.923547,3.072 11.761981,3.37727 12.441411,1.94488 0.67944,-1.43242 -1.0757,-3.74231 -3.344499,-8.39528 -2.268778,-4.65296 0.351873,-12.59208 5.535309,-14.38513"
         id="path6647-061-1"
         sodipodi:nodetypes="czcszzc" />
      <path
         style="fill:#ffffff;fill-opacity:1;stroke:#000000;stroke-width:0.8;stroke-linecap:butt;stroke-linejoin:miter;stroke-miterlimit:4;stroke-dasharray:none;stroke-opacity:1"
         d="m 110.06582,135.54853 c 1.7674,1.29802 0.2149,7.29704 -1.91556,8.49521 -2.13046,1.19817 -3.60041,2.08215 -3.68318,2.59297 -0.20185,1.24576 2.76539,2.76293 6.62752,3.3887 3.86212,0.62578 7.21375,-0.22941 7.35847,-1.12258 0.14471,-0.89317 -1.23355,-1.83532 -3.29376,-3.95452 -2.06021,-2.11919 -1.90548,-6.86947 0.72518,-8.74468"
         id="path6647-55-2"
         sodipodi:nodetypes="czcszzc" />
      <path
         style="fill:#ffffff;fill-opacity:1;stroke:#000000;stroke-width:0.8;stroke-linecap:butt;stroke-linejoin:miter;stroke-miterlimit:4;stroke-dasharray:none;stroke-opacity:1"
         d="m 121.63335,87.72088 c -2.70469,-1.383536 -1.91083,-9.931708 0.73726,-12.04239 2.64808,-2.110682 4.46248,-3.6453 4.46248,-4.362236 0,-1.748406 -4.39413,-3.165769 -9.81457,-3.165769 -5.42043,0 -9.81456,1.912218 -9.81456,3.165769 0,1.25355 2.09365,2.236623 5.38075,4.67828 3.28709,2.441655 4.12809,8.972346 0.94596,12.119775"
         id="path6647-47-0"
         sodipodi:nodetypes="czcszzc" />
      <path
         style="fill:#ffffff;fill-opacity:1;stroke:#000000;stroke-width:0.8;stroke-linecap:butt;stroke-linejoin:miter;stroke-miterlimit:4;stroke-dasharray:none;stroke-opacity:1"
         d="m 134.87928,104.69202 c -0.26975,-1.84511 4.28898,-4.48803 6.28665,-3.91392 1.99768,0.57412 3.41068,0.93603 3.76934,0.68106 0.87467,-0.6218 0.021,-3.324127 -1.90671,-6.035807 -1.92772,-2.711688 -4.44707,-4.229882 -5.07419,-3.784063 -0.62711,0.445802 -0.37433,1.842823 -0.4268,4.355604 -0.0525,2.51279 -3.02048,5.256096 -5.72674,4.783516"
         id="path6647-65-74"
         sodipodi:nodetypes="czcszzc" />
      <path
         sodipodi:nodetypes="sssssss"
         d="m 96.909612,113.84352 c 1.947224,0.89845 4.791498,-1.96563 7.974568,-1.59272 6.83515,0.80076 15.23247,3.29272 19.66413,1.87494 2.7532,-0.88081 2.18022,14.4315 -0.59913,16.46136 -1.34921,0.98539 -7.17674,0.0265 -12.81354,0.0423 -5.97489,0.0168 -11.992053,-0.79009 -13.034768,-3.01211 -2.026422,-4.31831 -3.92095,-15.03325 -1.19126,-13.77378 z"
         style="fill:none;fill-opacity:1;fill-rule:evenodd;stroke:#000000;stroke-width:0.8;stroke-miterlimit:4;stroke-dasharray:none;stroke-opacity:1"
         id="rect6757-0" />
      <path
         sodipodi:nodetypes="czzc"
         d="m 98.377703,128.09725 c 0,0 -7.155689,-7.43101 -12.919964,-13.19528 -5.764276,-5.76428 -4.392209,-15.540083 1.372068,-8.87786 5.764275,6.66221 8.871267,8.23179 8.871267,8.23179"
         style="fill:none;fill-opacity:1;fill-rule:evenodd;stroke:#000000;stroke-width:0.8;stroke-miterlimit:4;stroke-dasharray:none;stroke-opacity:1"
         id="rect6760-2" />
      <path
         style="fill:#ffffff;fill-opacity:1;stroke:#000000;stroke-width:0.8;stroke-linecap:butt;stroke-linejoin:miter;stroke-miterlimit:4;stroke-dasharray:none;stroke-opacity:1"
         d="m 83.704846,104.10317 c 0.226121,3.62823 -7.486449,8.14394 -10.666884,6.75134 -3.180436,-1.3926 -5.435102,-2.29166 -6.047302,-1.84483 -1.492993,1.08967 -0.416566,6.46669 2.404273,12.00991 2.82084,5.54319 6.740464,8.84509 7.81089,8.06382 1.070427,-0.78126 0.820336,-3.53503 1.19468,-8.41832 0.374337,-4.88328 5.513347,-9.81352 9.857,-8.52092"
         id="path6647-6-7"
         sodipodi:nodetypes="czcszzc" />
      <path
         id="rect6760-8-0"
         style="fill:none;fill-opacity:1;fill-rule:evenodd;stroke:#000000;stroke-width:0.8;stroke-miterlimit:4;stroke-dasharray:none;stroke-opacity:1"
         d="m 125.05639,127.5615 c 0,0 5.44654,-0.80776 11.76568,-9.21796 6.31912,-8.41018 2.26021,-18.354075 -2.88366,-11.52265 -5.14386,6.83142 -7.95363,8.07698 -7.95363,8.07698"
         sodipodi:nodetypes="czzc" />
      <path
         style="fill:#ffffff;fill-opacity:1;stroke:#000000;stroke-width:0.8;stroke-linecap:butt;stroke-linejoin:miter;stroke-miterlimit:4;stroke-dasharray:none;stroke-opacity:1"
         d="m 135.45683,117.88846 c 0.99253,-5.00163 11.76648,-5.70715 14.5486,-1.82749 2.78213,3.87965 4.78416,6.51194 5.56081,6.30147 1.89402,-0.51327 2.60698,-8.3953 1.59243,-17.60502 -1.01454,-9.209704 -3.90849,-16.114277 -5.26643,-15.746287 -1.35796,0.367999 -2.03104,4.213869 -4.06081,10.515666 -2.02977,6.301801 -9.06547,6.772431 -12.95215,7.440611"
         id="path6647-5-5"
         sodipodi:nodetypes="czcszzc" />
      <path
         sodipodi:nodetypes="zzzzz"
         d="m 102.69983,118.57512 c 5.86034,1.20607 13.16805,-0.24296 16.73345,0 3.5654,0.24297 3.75318,1.46578 0,1.27884 -3.75318,-0.18693 -14.80908,0.17117 -17.23816,-0.62986 -2.429085,-0.80103 -5.355624,-1.85504 0.50471,-0.64898 z"
         style="fill:#ffffff;fill-opacity:1;fill-rule:evenodd;stroke:#000000;stroke-width:0.8;stroke-dasharray:none;stroke-opacity:1"
         id="rect6778-56" />
      <path
         id="rect6778-4-35"
         style="fill:#ffffff;fill-opacity:1;fill-rule:evenodd;stroke:#000000;stroke-width:0.8;stroke-dasharray:none;stroke-opacity:1"
         d="m 103.13228,125.03344 c 4.51615,0.93026 9.9578,-1.78699 12.67383,-1.86545 2.71604,-0.0785 2.93691,1.50615 0.0822,1.67911 -2.85466,0.1729 -11.20531,1.87567 -13.0966,1.0947 -1.89129,-0.78096 -4.175611,-1.83862 0.34054,-0.90836 z"
         sodipodi:nodetypes="zzzzz" />
      <path
         sodipodi:nodetypes="czzc"
         d="m 114.18988,130.9657 c 0,0 2.34401,9.4524 7.05364,9.3815 4.70962,-0.0709 6.91143,-4.60357 4.45199,-6.87431 -2.45944,-2.27075 -3.37811,-2.54076 -3.37811,-2.54076"
         style="fill:#ffffff;fill-opacity:1;fill-rule:evenodd;stroke:#000000;stroke-width:0.8;stroke-miterlimit:4;stroke-dasharray:none;stroke-opacity:1"
         id="rect6760-8-3-0" />
      <path
         style="fill:#ffffff;fill-opacity:1;stroke:#000000;stroke-width:0.8;stroke-linecap:butt;stroke-linejoin:miter;stroke-miterlimit:4;stroke-dasharray:none;stroke-opacity:1"
         d="m 117.70481,136.20363 c 3.01088,-0.40512 5.41129,7.07064 4.43883,10.31435 -0.97249,3.2437 -1.58836,5.53887 -1.17966,6.12791 0.9967,1.4365 5.41491,0.0961 9.86835,-2.99388 4.45345,-3.08999 6.9736,-7.16598 6.25901,-8.1959 -0.7146,-1.02992 -2.99517,-0.64411 -7.08775,-0.77634 -4.09257,-0.13224 -3.64405,-2.25269 -5.41079,-6.68792"
         id="path6647-32-1"
         sodipodi:nodetypes="czcszzc" />
      <path
         sodipodi:nodetypes="sssss"
         d="m 114.70223,103.95663 c 0.24188,-2.54292 2.45333,-3.27019 4.24044,-2.78062 1.78711,0.48957 3.37983,2.27193 2.23125,4.55353 -1.1717,2.32755 -2.67077,4.06391 -4.45788,3.57434 -1.78711,-0.48958 -2.25934,-2.766 -2.01381,-5.34725 z"
         style="fill:#ffffff;fill-opacity:1;stroke:#000000;stroke-width:0.8;stroke-linejoin:round;stroke-miterlimit:4;stroke-dasharray:none;stroke-opacity:1"
         id="path6832-6" />
      <path
         inkscape:transform-center-y="12.232015"
         inkscape:transform-center-x="15.367259"
         id="path6832-4-60"
         style="fill:#ffffff;fill-opacity:1;stroke:#000000;stroke-width:0.8;stroke-linejoin:round;stroke-miterlimit:4;stroke-dasharray:none;stroke-opacity:1"
         d="m 103.04408,105.65404 c -0.96407,-2.36548 0.65856,-4.03476 2.46907,-4.42909 1.81051,-0.39433 4.04785,0.44701 4.08737,3.00111 0.0403,2.60551 -0.48343,4.83887 -2.29395,5.23319 -1.81051,0.39433 -3.28389,-1.40406 -4.26249,-3.80521 z"
         sodipodi:nodetypes="sssss" />
      <path
         id="rect6760-1-2"
         style="fill:none;fill-opacity:1;fill-rule:evenodd;stroke:#000000;stroke-width:0.8;stroke-miterlimit:4;stroke-dasharray:none;stroke-opacity:1"
         d="m 101.29168,113.17958 c 0,0 -1.720106,-9.4588 -6.61987,-15.378834 -4.899765,-5.920039 1.27516,-17.451337 7.03944,-10.789117 5.76427,6.66221 4.28314,25.440971 4.28314,25.440971"
         sodipodi:nodetypes="czzc" />
      <path
         style="fill:#ffffff;fill-opacity:1;stroke:#000000;stroke-width:0.8;stroke-linecap:butt;stroke-linejoin:miter;stroke-miterlimit:4;stroke-dasharray:none;stroke-opacity:1"
         d="m 101.71125,88.831954 c -3.154258,0.01625 -6.493369,-11.173509 -5.055649,-15.517695 1.43773,-4.3442 2.380692,-7.431182 2.039215,-8.326709 -0.832769,-2.18395 -5.561758,-1.120677 -10.562494,2.374886 -5.000732,3.495558 -8.143833,8.71785 -7.546765,10.283665 0.597068,1.565815 2.996851,1.443618 7.192397,2.373719 4.195538,0.930078 8.082004,8.545287 6.645389,14.528888"
         id="path6647-0-3"
         sodipodi:nodetypes="czcszzc" />
      <path
         sodipodi:nodetypes="czcszzc"
         id="path6647-65-9-45"
         d="m 124.84481,99.774829 c -0.62709,-2.339734 1.61361,-8.279166 3.02348,-8.552711 1.40987,-0.273546 2.39619,-0.526401 2.56086,-1.056946 0.40157,-1.293813 -0.80796,-4.480544 -2.70152,-7.117757 -1.89359,-2.637213 -3.86785,-3.360039 -4.15576,-2.432389 -0.28792,0.927603 0.21769,2.67372 0.8052,6.079825 0.58752,3.406105 -0.61867,8.648016 -2.45322,9.42893"
         style="fill:#ffffff;fill-opacity:1;stroke:#000000;stroke-width:0.8;stroke-linecap:butt;stroke-linejoin:miter;stroke-miterlimit:4;stroke-dasharray:none;stroke-opacity:1" />
    </g>
  </g>
</svg>
